Coordinates
version=1
nRows=13
nColumns=38
inDegrees=no

Units are S.I. units (second, meters, Newtons, ...)
If the header above contains a line with 'inDegrees', this indicates whether rotational values are in degrees (yes) or radians (no).

endheader
time	pelvis_tilt	pelvis_list	pelvis_rotation	pelvis_tx	pelvis_ty	pelvis_tz	hip_flexion_r	hip_adduction_r	hip_rotation_r	knee_angle_r	ankle_angle_r	subtalar_angle_r	mtp_angle_r	hip_flexion_l	hip_adduction_l	hip_rotation_l	knee_angle_l	ankle_angle_l	subtalar_angle_l	mtp_angle_l	lumbar_extension	lumbar_bending	lumbar_rotation	arm_flex_r	arm_add_r	arm_rot_r	elbow_flex_r	pro_sup_r	wrist_flex_r	wrist_dev_r	arm_flex_l	arm_add_l	arm_rot_l	elbow_flex_l	pro_sup_l	wrist_flex_l	wrist_dev_l
20.74	3.10749	1.1747	-1.3969	0.671122	-0.350731	0.967256	-0.390547	0.0759819	-0.0461022	0.149067	-0.336173	0	0	-0.228628	-0.173526	-0.0964153	0.798858	-0.16949	0	0	-0.53261	0.0168175	0.190634	0.0450888	-0.520818	-0.177341	1.90378	1.5708	0	0	0.732577	-0.413297	0.634552	1.39744	1.5708	0	0
20.75	3.11045	1.1759	-1.39797	0.670658	-0.348717	0.967268	-0.395111	0.075597	-0.0457273	0.142813	-0.33659	0	0	-0.227184	-0.171475	-0.104673	0.763049	-0.164787	0	0	-0.533003	0.0163802	0.189752	0.0434908	-0.520958	-0.179779	1.90586	1.5708	0	0	0.734586	-0.413054	0.636913	1.39795	1.5708	0	0
20.76	3.11168	1.17697	-1.39806	0.670152	-0.346637	0.967217	-0.399636	0.0757005	-0.0441848	0.136765	-0.337275	0	0	-0.226967	-0.169966	-0.113128	0.725899	-0.16117	0	0	-0.533195	0.0163333	0.189713	0.0413827	-0.52135	-0.183228	1.90798	1.5708	0	0	0.736344	-0.412098	0.639207	1.39848	1.5708	0	0
20.77	3.11138	1.17825	-1.39705	0.669577	-0.344572	0.967107	-0.403533	0.076135	-0.0417884	0.131267	-0.337498	0	0	-0.22711	-0.168576	-0.120204	0.688183	-0.158212	0	0	-0.532987	0.0167779	0.190398	0.0385827	-0.521866	-0.187783	1.91006	1.5708	0	0	0.738453	-0.411098	0.642461	1.39921	1.5708	0	0
20.78	3.10916	1.18048	-1.39438	0.668918	-0.342565	0.966882	-0.405494	0.0768639	-0.0394241	0.127296	-0.337589	0	0	-0.226261	-0.167396	-0.125214	0.651697	-0.155648	0	0	-0.531648	0.017841	0.191518	0.0353624	-0.52279	-0.192786	1.91201	1.5708	0	0	0.740615	-0.410207	0.646566	1.40008	1.5708	0	0
20.79	3.10798	1.18535	-1.39204	0.667993	-0.340863	0.966573	-0.402916	0.0762728	-0.0390935	0.126467	-0.336961	0	0	-0.221757	-0.164118	-0.12502	0.617484	-0.153844	0	0	-0.528356	0.0187205	0.191493	0.0322632	-0.524228	-0.197809	1.91366	1.5708	0	0	0.74201	-0.40838	0.650108	1.40073	1.5708	0	0
20.8	3.11223	1.18696	-1.39687	0.66709	-0.338999	0.966722	-0.404491	0.0732806	-0.0387138	0.12544	-0.336144	0	0	-0.223465	-0.158701	-0.12852	0.581241	-0.15451	0	0	-0.528325	0.017121	0.192317	0.0290978	-0.525584	-0.202666	1.91489	1.5708	0	0	0.742975	-0.406378	0.65311	1.40156	1.5708	0	0
20.81	3.11817	1.18888	-1.40287	0.666057	-0.337342	0.966931	-0.405108	0.0695007	-0.0380826	0.125506	-0.335082	0	0	-0.224805	-0.152006	-0.129488	0.547145	-0.156477	0	0	-0.528589	0.0150691	0.192165	0.0264332	-0.526692	-0.207775	1.91589	1.5708	0	0	0.744012	-0.404391	0.655499	1.40274	1.5708	0	0
20.82	3.12272	1.19058	-1.40751	0.664919	-0.335654	0.967078	-0.405529	0.0661983	-0.0378828	0.126171	-0.333879	0	0	-0.226354	-0.145952	-0.130462	0.516817	-0.158963	0	0	-0.528567	0.0135803	0.191989	0.0237211	-0.527857	-0.213268	1.91643	1.5708	0	0	0.745016	-0.402675	0.658084	1.40418	1.5708	0	0
20.83	3.126	1.19218	-1.41092	0.663689	-0.3339	0.967158	-0.405759	0.0633897	-0.0381963	0.127355	-0.333396	0	0	-0.227988	-0.140373	-0.131017	0.490101	-0.163003	0	0	-0.528087	0.0125583	0.191693	0.0211086	-0.529401	-0.218681	1.91645	1.5708	0	0	0.745397	-0.401097	0.660199	1.40592	1.5708	0	0
20.84	3.12753	1.19356	-1.41295	0.662398	-0.332064	0.967162	-0.406107	0.0611705	-0.0384971	0.128638	-0.332656	0	0	-0.22994	-0.135498	-0.131373	0.466094	-0.170358	0	0	-0.527214	0.0119855	0.191528	0.0188228	-0.530732	-0.223374	1.91589	1.5708	0	0	0.74503	-0.39893	0.661579	1.40696	1.5708	0	0
20.85	3.1272	1.19474	-1.4134	0.661059	-0.33014	0.967058	-0.406678	0.0595274	-0.0388108	0.129882	-0.33089	0	0	-0.232087	-0.131495	-0.130385	0.44477	-0.182284	0	0	-0.52591	0.0119106	0.191612	0.0165831	-0.531683	-0.227297	1.91544	1.5708	0	0	0.744032	-0.396833	0.6624	1.40809	1.5708	0	0
20.86	3.12763	1.19623	-1.41433	0.659528	-0.328342	0.966966	-0.406419	0.0571207	-0.0400347	0.13215	-0.328643	0	0	-0.233449	-0.126652	-0.125709	0.426512	-0.199481	0	0	-0.524435	0.0118496	0.190965	0.0151039	-0.532669	-0.23035	1.9145	1.5708	0	0	0.742571	-0.394208	0.662319	1.40847	1.5708	0	0
